<svg xmlns="http://www.w3.org/2000/svg" xmlns:xlink="http://www.w3.org/1999/xlink" width="47.175" height="57.983" viewBox="0 0 47.175 57.983"><defs><clipPath id="a"><rect x="7" y="-2" width="47.175" height="57.983" fill="none"/></clipPath></defs><g transform="translate(-7 2)" clip-path="url(#a)" style="isolation:isolate"><g transform="translate(0 -7.817)"><path d="M0,30.9Z" transform="translate(0 0)" fill="#58b0e0"/><path d="M23.255,38.68l15.907.121V51.719L23.255,51.6Z" fill="#f9dca4" fill-rule="evenodd"/><path d="M43.971,58.9a30.967,30.967,0,0,1-25.843.14V48.417H43.97Z" fill="#e6e6e6" fill-rule="evenodd"/><path d="M33.4,61.7q-1.238.1-2.5.1-.955,0-1.9-.057l1.03-8.988h2.41Z" fill="#e9573e" fill-rule="evenodd"/><path d="M25.657,61.332A34.072,34.072,0,0,1,15.9,57.92a31.033,31.033,0,0,1-7.857-6.225l1.284-3.1,13.925-6.212c0,5.212,1.711,13.482,2.405,18.95Z" fill="#677079" fill-rule="evenodd"/><path d="M39.165,38.759V41.99c-4.732,5.527-13.773,4.745-15.8-3.412Z" fill-rule="evenodd" opacity="0.11"/><path d="M31.129,8.432c21.281,0,12.987,35.266,0,35.266-12.267,0-21.281-35.266,0-35.266Z" fill="#ffe8be" fill-rule="evenodd"/><path d="M18.365,24.046c-3.07,1.339-.46,7.686,1.472,7.658a31.972,31.972,0,0,1-1.472-7.659Zm25.775,0c3.07,1.339.46,7.687-1.471,7.658a31.993,31.993,0,0,0,1.471-7.658Z" fill="#f9dca4" fill-rule="evenodd"/><path d="M21.931,14.328c-3.334,3.458-2.161,13.03-2.161,13.03l-1.05-.5c-6.554-25.394,31.634-25.4,25.043,0l-1.05.5s1.174-9.572-2.16-13.03c-4.119,3.995-14.526,3.974-18.622,0Z" fill="#464449" fill-rule="evenodd"/><path d="M36.767,61.243A30.863,30.863,0,0,0,54.175,51.225l-1.09-2.631L39.161,42.382c0,5.212-1.7,13.393-2.394,18.861Z" fill="#677079" fill-rule="evenodd"/><path d="M39.162,41.98l-7.926,6.465,6.573,5.913s1.752-9.7,1.353-12.378Z" fill="#fff" fill-rule="evenodd"/><path d="M23.253,41.98l7.989,6.465L24.6,54.358s-1.746-9.7-1.344-12.378Z" fill="#fff" fill-rule="evenodd"/><path d="M28.109,51.227l3.137-2.818,3.137,2.818-3.137,2.817-3.137-2.817Z" fill="#e9573e" fill-rule="evenodd"/><path d="M25.767,61.373a30.816,30.816,0,0,1-3.779-.88q-.058-.045-.114-.093l-3.535-6.39,4.541-3.26H18.128L19.145,43.9l4.11-2.6c.178,7.37,1.759,15.656,2.512,20.073Zm10.878-.107c.588-.1,1.17-.234,1.747-.384q1.022-.271,2.034-.579l.134-.043,3.511-6.315L39.53,50.7h4.752l-1.017-6.817L39.155,41.3c-.178,7.332-1.758,15.571-2.51,19.966Z" fill="#434955" fill-rule="evenodd"/></g></g></svg>