<svg xmlns="http://www.w3.org/2000/svg" xmlns:xlink="http://www.w3.org/1999/xlink" width="92" height="117" viewBox="0 0 92 117"><defs><clipPath id="a"><rect x="27" y="6" width="92" height="117" fill="none"/></clipPath><clipPath id="b"><rect width="146" height="120" transform="translate(328 -146.776)" fill="#fff" stroke="#707070" stroke-width="1"/></clipPath></defs><g transform="translate(-27 -6)" clip-path="url(#a)" style="isolation:isolate"><g transform="translate(-328 146.776)" clip-path="url(#b)"><g transform="translate(340.536 -135.598)"><g transform="translate(0 0)"><path d="M164.209,63.99c41.744,0,25.475,68.247,0,68.247C140.148,132.237,122.465,63.99,164.209,63.99Z" transform="translate(-103.147 -58.447)" fill="#ffe8be" fill-rule="evenodd"/><path d="M0,206.647Z" transform="translate(0 -157.623)" fill="#58b0e0"/><path d="M166.294,151.681l-57.225.339s2.056,31.25-5.137,41.046h70.03C172.157,190.453,167.384,189.611,166.294,151.681Z" transform="translate(-77.068 -123.776)" fill="#60350a" fill-rule="evenodd"/><path d="M137.626,326.336l14.135-6.167,22.656-.581,14.555,7.541-10.508,21.7-14.933,7.911-15.447-8.418Z" transform="translate(-102.053 -248.866)" fill="#d5e1ed" fill-rule="evenodd"/><path d="M187.782,293.542l25.365.163v17.318l-25.365-.164Z" transform="translate(-139.245 -229.463)" fill="#f9dca4" fill-rule="evenodd"/><path d="M213.658,293.155v6.928a17.507,17.507,0,0,1-.078,2.373,13.2,13.2,0,0,1-.614,2.568c-8.572,8.06-22.321,1.509-24.5-12.256Z" transform="translate(-139.751 -228.886)" fill-rule="evenodd" opacity="0.11"/><path d="M152.619,357.471a61.185,61.185,0,0,1-86.466-.567l2.4-6L86.4,342.932c6.4,11.573,13.358,22.3,24.161,29.909A88.033,88.033,0,0,0,133.794,343.5l15.975,7.456Z" transform="translate(-49.054 -266.257)" fill="#434955" fill-rule="evenodd"/><path d="M137.371,183.519c-5.8,2.5-.867,14.34,2.785,14.288a58.975,58.975,0,0,1-2.785-14.288Zm47.856,0c5.806,2.5.869,14.342-2.783,14.29a58.956,58.956,0,0,0,2.783-14.29Z" transform="translate(-99.885 -147.494)" fill="#f9dca4" fill-rule="evenodd"/><path d="M166.636,65.766c17.109,0,24.278,12,24.718,25.868.6,18.984-11.132,41.471-24.716,41.471-12.868,0-24.924-23.257-24.192-42.435C142.956,77.215,149.927,65.766,166.636,65.766Z" transform="translate(-105.603 -59.77)" fill="#ffe8be" fill-rule="evenodd"/><path d="M173.4,183.348a14.951,14.951,0,0,1,10.245-1.922h.01c10.11,1.219,10.267,4.319,9.284,5.033a5.593,5.593,0,0,0-1.54,1.978,12.6,12.6,0,0,1-2.064,5.655,10.158,10.158,0,0,1-6.795,4.474,10.043,10.043,0,0,1-1.012.112,8.577,8.577,0,0,1-7.16-3.007,16.071,16.071,0,0,1-2.9-4.9v.006s-1.563-3.166-4.064-.221a16.293,16.293,0,0,1-2.982,5.109,8.581,8.581,0,0,1-7.162,3.009q-.509-.031-1.012-.112a10.16,10.16,0,0,1-6.795-4.474,12.6,12.6,0,0,1-2.064-5.653,5.329,5.329,0,0,0-1.51-1.98c-.981-.716-.834-3.818,9.276-5.037h0a14.968,14.968,0,0,1,10.279,1.955l0,0,.006,0,.422.254a7.8,7.8,0,0,0,7.536-.286Zm-9.164,1.235a13.177,13.177,0,0,0-12.077-.49c-2.964,1.328-3.868,2.264-2.719,6.121a10.8,10.8,0,0,0,1.4,2.965,8.264,8.264,0,0,0,6.524,3.861,6.98,6.98,0,0,0,5.818-2.462,14.655,14.655,0,0,0,2.668-4.586c1.332-3.445,1.691-3.605-1.608-5.409Zm21.473-.871a13.353,13.353,0,0,0-11.546,1.093c-3.017,1.763-2.468,2.057-1.134,5.4a14.424,14.424,0,0,0,2.581,4.374,6.98,6.98,0,0,0,5.82,2.462,8.391,8.391,0,0,0,.843-.093,8.518,8.518,0,0,0,5.681-3.768,10.761,10.761,0,0,0,1.342-2.787c1.377-4.354.149-5.324-3.586-6.678Z" transform="translate(-107.884 -145.774)" fill="#464449" fill-rule="evenodd"/><path d="M126.923,81.033c0-1.235,1.93-1.715,3.135,5.7a42.385,42.385,0,0,0,1.875-9.314c2.279.435,4.468,5.511,3.78,9.962,6.21-1.5,22.172-11.005,27.362-23.849,13.284,7.549,13.211,23.4,13.211,23.4s.7-3.677,1.095-6.8c.129-1.041.575-1.419,1.565-.412,7.183-14.677-4.141-37.111-25.724-37.46-29.635-.476-33.406,31.184-26.3,38.779Z" transform="translate(-91.83 -42.25)" fill="#8a5c42" fill-rule="evenodd"/><path d="M167.334,322.009a27.637,27.637,0,0,0,12.678,10.133l-8.254,11.89-11.607-18.926Z" transform="translate(-118.756 -250.67)" fill="#fff" fill-rule="evenodd"/><path d="M249.6,322.009a27.639,27.639,0,0,1-12.678,10.133l8.256,11.89,11.677-18.71Z" transform="translate(-175.683 -250.67)" fill="#fff" fill-rule="evenodd"/><ellipse cx="1.646" cy="1.624" rx="1.646" ry="1.624" transform="translate(59.6 89.321)" fill="#434955"/><ellipse cx="1.646" cy="1.624" rx="1.646" ry="1.624" transform="translate(59.6 96.537)" fill="#434955"/><path d="M190.287,187.729c3.5,1.378,3.372,3.06,2.681,3.563a5.6,5.6,0,0,0-1.54,1.978,12.675,12.675,0,0,1-1.142,4.037ZM148.174,196.4a12.667,12.667,0,0,1-.753-3.125,5.325,5.325,0,0,0-1.51-1.98c-.661-.482-.81-2.051,2.264-3.394Z" transform="translate(-107.906 -150.632)" fill="#464449" fill-rule="evenodd"/></g></g></g></g></svg>