<svg xmlns="http://www.w3.org/2000/svg" width="168.314" height="165.44" viewBox="0 0 168.314 165.44"><g transform="translate(0 -3.996)"><g transform="translate(0 3.996)"><g transform="translate(0 28.387)"><g transform="translate(1.799 26.811)"><g transform="translate(34.254 37.815)"><path d="M100.246,262.622h17.812v61.526H100.246Z" transform="translate(-100.246 -262.622)" fill="#707070"/></g><g transform="translate(0 55.005)"><path d="M5,310.417H22.813v44.337H5Z" transform="translate(-5.001 -310.417)" fill="#707070"/></g><g transform="translate(68.509 20.626)"><path d="M195.491,214.828H213.3v71.506H195.491Z" transform="translate(-195.491 -214.828)" fill="#707070"/></g><g transform="translate(102.763)"><path d="M290.736,157.476h17.812v99.342H290.736Z" transform="translate(-290.736 -157.476)" fill="#707070"/></g></g><path d="M118.2,85.6a1.8,1.8,0,0,0-1.212-.9l-8.347-1.736a1.8,1.8,0,1,0-.732,3.521l3.637.756L.92,149.191a1.8,1.8,0,0,0-.69,2.448,1.864,1.864,0,0,0,2.448.69L113.166,90.457l-1.343,3.512a1.8,1.8,0,0,0,1.037,2.322,1.888,1.888,0,0,0,2.322-1.037L118.3,87.1a1.8,1.8,0,0,0-.1-1.505Z" transform="translate(0 -82.927)" fill="rgba(91,176,213,0.35)"/></g><g transform="translate(1.799)"><g transform="translate(14.55)"><path d="M67.787,18.557a1.8,1.8,0,0,1-1.8-1.8V9.4a1.8,1.8,0,0,0-1.8-1.805H50.853a1.8,1.8,0,0,0-1.8,1.805v7.361a1.8,1.8,0,1,1-3.6,0V9.4A5.4,5.4,0,0,1,50.853,4H64.19a5.4,5.4,0,0,1,5.395,5.4v7.361A1.8,1.8,0,0,1,67.787,18.557Z" transform="translate(-45.458 -3.996)" fill="rgba(91,176,213,0.52)"/></g><g transform="translate(1.901 15.147)"><path d="M59.712,46.112H10.287V76.181a3.6,3.6,0,0,0,3.6,3.6H56.116a3.6,3.6,0,0,0,3.6-3.6V46.112Z" transform="translate(-10.287 -46.112)" fill="#5bb0d5"/></g><g transform="translate(0 11.321)"><path d="M54.632,35.475H8.6a3.6,3.6,0,0,0-3.6,3.6v6.964a2.162,2.162,0,0,0,1.618,2.093l25,6.467,25-6.467a2.161,2.161,0,0,0,1.618-2.093V39.078A3.6,3.6,0,0,0,54.632,35.475Z" transform="translate(-5.001 -35.475)" fill="#5bb0d5"/></g><g transform="translate(23.017 26.504)"><path d="M69,77.692h7.193V84.9H69Z" transform="translate(-69.001 -77.692)" fill="#dfdef9"/></g></g><g transform="translate(64.618 61.6)"><g transform="translate(0 28.147)"><ellipse cx="37.763" cy="37.847" rx="37.763" ry="37.847" fill="#5bb0d5"/></g><g transform="translate(13.667 41.844)"><ellipse cx="24.096" cy="24.15" rx="24.096" ry="24.15" fill="#fff"/></g><g transform="translate(27.795 56.004)"><ellipse cx="9.968" cy="9.99" rx="9.968" ry="9.99" fill="#5bb0d5"/></g><g transform="translate(36.091)"><g transform="translate(38.84 4.128)"><path d="M389.219,210.435l-.141-.047a22.219,22.219,0,0,1,3.6-20.394l.184-.238a7.736,7.736,0,0,1,13.7,3.244l.274.056a7.764,7.764,0,0,1,3.189,13.727l-.185.144a22.092,22.092,0,0,1-20.623,3.508Z" transform="translate(-388.018 -186.753)" fill="#5bb0d5"/></g><path d="M281.777,243.067A1.842,1.842,0,0,1,280.5,240l64.053-64.2a1.8,1.8,0,1,1,2.546,2.54l-64.053,64.2a1.79,1.79,0,0,1-1.273.528Z" transform="translate(-280.023 -175.275)" fill="#dfdef9"/></g></g><g transform="translate(125.517 0.356)"><ellipse cx="20.5" cy="20.545" rx="20.5" ry="20.545" fill="#707070"/><g transform="translate(12.159 5.872)"><path d="M392.6,34.033V27.968a8.243,8.243,0,0,1,3.426,1.573,1.762,1.762,0,0,0,2.583-1.472,1.6,1.6,0,0,0-.461-1.132,9.653,9.653,0,0,0-5.565-2.338V22.619a1.29,1.29,0,0,0-1.256-1.3,1.315,1.315,0,0,0-1.39,1.3v1.91c-4.013.359-6.8,2.968-6.8,6.394,0,4.1,3.2,5.365,6.8,6.363v6.951a9.061,9.061,0,0,1-4.458-2.068,1.712,1.712,0,0,0-2.666,1.427,1.594,1.594,0,0,0,.457,1.129,10.709,10.709,0,0,0,6.684,2.8v1.829a1.32,1.32,0,0,0,1.359,1.306,1.3,1.3,0,0,0,1.287-1.306V47.486c5.076-.413,6.89-3.75,6.89-6.761C399.488,36.357,395.959,34.967,392.6,34.033Zm3.218,7.1c0,1.293-.851,2.776-3.218,3.147V38.09C394.552,38.681,395.833,39.447,395.817,41.128Zm-5.864-13.307v5.515c-1.78-.544-3.111-1.121-3.111-2.634C386.842,29.153,388.056,28.037,389.953,27.821Z" transform="translate(-382.811 -21.315)" fill="#fff"/></g></g><g transform="translate(72.89 15.119)"><path d="M204.762,50.987l-2.09.443,2.416.685a3.6,3.6,0,0,1,2.53,2.683l.448,2.026.448-2.026a3.6,3.6,0,0,1,2.53-2.683l2.416-.685-2.09-.443a3.6,3.6,0,0,1-2.749-2.667l-.556-2.284-.556,2.284A3.6,3.6,0,0,1,204.762,50.987Z" transform="translate(-202.672 -46.035)" fill="#707070"/></g><g transform="translate(150.254 111.132)"><path d="M419.875,317.952l-2.09.443,2.416.685a3.6,3.6,0,0,1,2.53,2.683l.448,2.026.448-2.026a3.6,3.6,0,0,1,2.53-2.683l2.416-.685-2.09-.443a3.6,3.6,0,0,1-2.749-2.667L423.18,313l-.556,2.284A3.6,3.6,0,0,1,419.875,317.952Z" transform="translate(-417.785 -313)" fill="#5bb0d5"/></g></g></g></svg>