<svg xmlns="http://www.w3.org/2000/svg" width="201.98" height="188.731" viewBox="0 0 201.98 188.731"><g transform="translate(0 -16.793)"><g transform="translate(21.308 74.053)"><path d="M211.906,200.076l-21.974-33.934a9.169,9.169,0,0,0-7.724-4.2H85.254a9.17,9.17,0,0,0-7.717,4.19L55.494,200.07A9.223,9.223,0,0,0,56.34,211.2l70.481,79.127a9.211,9.211,0,0,0,6.871,3.082h0a9.212,9.212,0,0,0,6.872-3.081L211.053,211.2A9.225,9.225,0,0,0,211.906,200.076Zm-34.15-30.245-18.48,28.577-18.491-28.577Zm-25.731,31.9H115.359l18.333-28.332ZM126.6,169.832l-18.441,28.5-18.434-28.5Zm-44.169,3.249,18.529,28.646H63.825ZM65.492,209.617h39.7l20.993,68.143Zm68.2,65.7-20.241-65.7h40.482Zm7.5,2.445,20.994-68.145H201.9Zm25.331-76.035L185.038,173.1l18.537,28.626Z" transform="translate(-54.014 -161.942)" fill="#5bb0d5"/></g><g transform="translate(0 113.838)"><path d="M11.966,262.793H3.945a3.945,3.945,0,0,0,0,7.89h8.021a3.945,3.945,0,0,0,0-7.89Z" transform="translate(0 -262.793)" fill="#5bb0d5"/></g><g transform="translate(186.069 113.838)"><path d="M483.633,262.793h-8.021a3.945,3.945,0,0,0,0,7.89h8.021a3.945,3.945,0,1,0,0-7.89Z" transform="translate(-471.667 -262.793)" fill="#5bb0d5"/></g><g transform="translate(152.612 45.238)"><path d="M406.7,90.053a3.946,3.946,0,0,0-5.579,0l-13.1,13.1a3.945,3.945,0,0,0,5.579,5.579l13.1-13.1A3.945,3.945,0,0,0,406.7,90.053Z" transform="translate(-386.857 -88.897)" fill="#5bb0d5"/></g><g transform="translate(28.545 45.167)"><path d="M92.2,102.978l-13.1-13.1a3.945,3.945,0,0,0-5.579,5.579l13.1,13.1a3.945,3.945,0,0,0,5.579-5.579Z" transform="translate(-72.358 -88.718)" fill="#5bb0d5"/></g><g transform="translate(97.145 16.793)"><path d="M250.2,16.793a3.945,3.945,0,0,0-3.945,3.945V46.446a3.945,3.945,0,0,0,7.89,0V20.738A3.945,3.945,0,0,0,250.2,16.793Z" transform="translate(-246.254 -16.793)" fill="#5bb0d5"/></g><g transform="translate(97.144 55.847)"><path d="M252.984,116.946a3.942,3.942,0,1,0,1.156,2.789A3.973,3.973,0,0,0,252.984,116.946Z" transform="translate(-246.25 -115.79)" fill="#5bb0d5"/></g></g></svg>