<svg xmlns="http://www.w3.org/2000/svg" width="90.469" height="90.578" viewBox="0 0 90.469 90.578"><g transform="translate(-0.31 0)"><g transform="translate(0.31 0)"><g transform="translate(67.314 1.328)"><path d="M394.725,15.642l-1.6-6.137a2.662,2.662,0,0,0-4.459-1.211l-6.858,6.858a2.662,2.662,0,0,0-.684,2.592l2.49,9.009Z" transform="translate(-381.028 -7.512)" fill="#707070"/></g><g transform="translate(69.901 9.458)"><path d="M406.765,53.493l6.137,1.6a2.662,2.662,0,0,1,1.211,4.459l-6.858,6.858a2.662,2.662,0,0,1-2.592.684l-9.009-2.49Z" transform="translate(-395.655 -53.493)" fill="#707070"/></g><g transform="translate(75.399 10.445)"><path d="M439.711,64.144,432.853,71a2.661,2.661,0,0,1-2.592.684l-3.51-.969a2.772,2.772,0,0,0,2.049-.81l7.141-7.14a2.773,2.773,0,0,0,.205-3.7l2.353.614A2.661,2.661,0,0,1,439.711,64.144Z" transform="translate(-426.751 -59.073)" fill="#707070"/></g><g transform="translate(1.326 13.204)"><path d="M38.024,0A38.024,38.024,0,1,1,0,38.024,38.024,38.024,0,0,1,38.024,0Z" fill="#5bb0d5"/></g><g transform="translate(15.367 19.681)"><path d="M149.23,142.859a38.024,38.024,0,0,1-62.009,29.506,38.026,38.026,0,0,0,45.221-61.052A37.988,37.988,0,0,1,149.23,142.859Z" transform="translate(-87.221 -111.313)" fill="#5bb0d5"/></g><g transform="translate(11.457 23.335)"><circle cx="27.893" cy="27.893" r="27.893" fill="#f9f7f8"/></g><g transform="translate(22.184 27.298)"><path d="M170.841,178.322a27.894,27.894,0,0,1-45.06,21.986,27.9,27.9,0,0,0,31.507-45.916A27.883,27.883,0,0,1,170.841,178.322Z" transform="translate(-125.781 -154.393)" fill="#efedef"/></g><g transform="translate(21.64 33.518)"><path d="M17.71,0A17.71,17.71,0,1,1,0,17.71,17.71,17.71,0,0,1,17.71,0Z" fill="#5bb0d5"/></g><g transform="translate(27.872 35.532)"><path d="M187.139,216.658a17.709,17.709,0,0,1-29.188,13.487,17.711,17.711,0,0,0,19.686-29.182A17.7,17.7,0,0,1,187.139,216.658Z" transform="translate(-157.951 -200.963)" fill="#5bb0d5"/></g><g transform="translate(31.309 43.187)"><circle cx="8.041" cy="8.041" r="8.041" fill="#f9f7f8"/></g><g transform="translate(33.058 43.948)"><path d="M201.613,255.842a8.04,8.04,0,0,1-14.332,5.005,8.04,8.04,0,0,0,9.707-12.285,8.039,8.039,0,0,1,4.625,7.279Z" transform="translate(-187.281 -248.563)" fill="#efedef"/></g><g transform="translate(1.326 64.34)"><path d="M12.456,0A12.456,12.456,0,1,1,0,12.456,12.456,12.456,0,0,1,12.456,0Z" fill="#70a54d"/></g><g transform="translate(5.831 65.437)"><path d="M53.7,381.461a12.458,12.458,0,0,1-20.407,9.59A12.459,12.459,0,0,0,46.364,370.1,12.458,12.458,0,0,1,53.7,381.461Z" transform="translate(-33.291 -370.103)" fill="#70a54d"/></g><g transform="translate(0 0)"><g transform="translate(6.561 71.113)"><path d="M51.088,402.839a2.4,2.4,0,0,0-3.395.137l-4.139,4.486a.45.45,0,0,1-.662,0l-1.294-1.4a2.408,2.408,0,0,0-3.548,3.257l3.032,3.318a2.871,2.871,0,0,0,4.229.01l5.914-6.411a2.4,2.4,0,0,0-.137-3.395Z" transform="translate(-37.42 -402.202)" fill="#f9f7f8"/></g><g transform="translate(10.032 71.114)"><path d="M67.385,406.237l-5.914,6.411a2.871,2.871,0,0,1-4.229-.011l-.191-.209a2.856,2.856,0,0,0,2.1-.925l5.914-6.411a2.4,2.4,0,0,0,.29-2.871,2.4,2.4,0,0,1,2.035,4.015Z" transform="translate(-57.051 -402.206)" fill="#efedef"/></g><path d="M90.635,12.589a3.946,3.946,0,0,0-2.843-2.814l-5.385-1.4L81,2.987a3.989,3.989,0,0,0-6.68-1.814L67.467,8.03a4,4,0,0,0-1.024,3.883l2.279,8.245L66.46,22.419a39.424,39.424,0,0,0-9.091-6.34,1.326,1.326,0,1,0-1.2,2.367,36.771,36.771,0,0,1,8.41,5.848l-5.3,5.3A29.21,29.21,0,0,0,12.949,63.065a13.7,13.7,0,0,0-7.011,2.629A36.717,36.717,0,0,1,50.574,16.18a1.326,1.326,0,1,0,.788-2.532A39.384,39.384,0,0,0,3.851,67.584,13.78,13.78,0,0,0,1.038,81.226a1.326,1.326,0,1,0,2.512-.852A11.141,11.141,0,1,1,6.568,85a1.326,1.326,0,1,0-1.794,1.954,13.767,13.767,0,0,0,18.53.086A39.35,39.35,0,0,0,68.34,24.29l2.243-2.243,8.283,2.289a3.993,3.993,0,0,0,3.883-1.024l6.858-6.858a3.945,3.945,0,0,0,1.028-3.865ZM15.916,63.139A26.555,26.555,0,0,1,57.4,31.474l-5.333,5.333a19.069,19.069,0,1,0,1.884,1.867l5.331-5.331A26.555,26.555,0,0,1,27.75,74.97,13.807,13.807,0,0,0,15.916,63.139ZM38.492,52.263a1.326,1.326,0,0,0,1.875,0L45.2,47.434a6.729,6.729,0,1,1-1.9-1.848l-4.8,4.8a1.326,1.326,0,0,0,0,1.875ZM45.2,43.68a9.386,9.386,0,1,0,1.894,1.857l4.985-4.985a16.412,16.412,0,1,1-1.887-1.864ZM70.757,31.732A36.695,36.695,0,0,1,25.2,84.95a13.7,13.7,0,0,0,2.628-7.012,29.205,29.205,0,0,0,33.34-46.47l5.3-5.3A36.89,36.89,0,0,1,70.757,31.732ZM69,11.207a1.338,1.338,0,0,1,.343-1.3L76.2,3.048a1.285,1.285,0,0,1,.931-.393A1.408,1.408,0,0,1,77.5,2.7a1.312,1.312,0,0,1,.943.952l1.408,5.4-3.421,3.421a1.325,1.325,0,0,0-.156.131L70.877,18Zm18.732,3.372-6.858,6.858a1.338,1.338,0,0,1-1.3.343L72.758,19.9l8.964-8.964,5.4,1.408a1.336,1.336,0,0,1,.608,2.238Z" transform="translate(-0.31 0)"/><path d="M33.943,407.364a4.208,4.208,0,0,0,3.088,1.366h.01a4.207,4.207,0,0,0,3.085-1.351l5.914-6.411a3.729,3.729,0,0,0-5.481-5.056L37.064,399.7l-.651-.705a3.734,3.734,0,0,0-5.5,5.051Zm-1.008-6.633a1.083,1.083,0,0,1,1.529.062l1.295,1.4a1.776,1.776,0,0,0,2.611,0l4.138-4.486a1.076,1.076,0,1,1,1.582,1.46l-5.914,6.411a1.527,1.527,0,0,1-1.135.5h0a1.528,1.528,0,0,1-1.137-.5l-3.032-3.318a1.085,1.085,0,0,1,.065-1.526Z" transform="translate(-24.699 -324.924)"/></g></g></g></svg>